<svg width="15" height="12" viewBox="0 0 15 12" fill="none" xmlns="http://www.w3.org/2000/svg">
<path fill-rule="evenodd" clip-rule="evenodd" d="M14.375 12C14.5625 12 14.6875 11.95 14.8125 11.85C15.0625 11.65 15.0625 11.35 14.8125 11.15L1.0625 0.15C0.8125 -0.05 0.4375 -0.05 0.1875 0.15C-0.0625 0.35 -0.0625 0.65 0.1875 0.85L2.875 3C1.75 3.75 0.75 4.7 0.0625 5.75C-2.79397e-09 5.9 -2.79397e-09 6.05 0.0625 6.2C0.1875 6.4 2.8125 10.5 7.5 10.5C8.8125 10.5 10.0625 10.2 11.125 9.6L13.9375 11.85C14.0625 11.95 14.1875 12 14.375 12ZM6.06257 1.65C5.68757 1.7 5.50007 1.95 5.56257 2.25C5.68757 2.5 6.00007 2.65 6.31257 2.7C6.68757 2.65 7.12507 2.6 7.50007 2.6C10.8751 2.6 13.1251 5.3 13.6876 6.1C13.3751 6.55 13.0001 6.95 12.5626 7.35C12.3126 7.55 12.3751 7.85 12.6251 8.05C12.6876 8.1 12.8751 8.15 13.0001 8.15C13.1876 8.15 13.3751 8.05 13.5001 7.95C14.0626 7.4 14.5626 6.85 14.9376 6.25C15.0001 6.1 15.0001 5.95 14.9376 5.8C14.8126 5.6 12.1876 1.5 7.50007 1.5C7.00007 1.5 6.50007 1.55 6.06257 1.65ZM6.18735 6.0498C6.18735 6.2998 6.31235 6.5498 6.56235 6.7498C6.93735 6.9998 7.37485 7.0498 7.81235 6.9498L6.24985 5.6998C6.24985 5.78238 6.23091 5.8498 6.21388 5.91042C6.19998 5.95991 6.18735 6.00486 6.18735 6.0498ZM8.75015 7.74981L10.2501 8.89981C9.37515 9.29981 8.43765 9.49981 7.50015 9.49981C4.12515 9.49981 1.87515 6.79981 1.31265 5.9998C2.00015 5.0998 2.81265 4.3498 3.75015 3.6998L5.31265 4.9498C5.06265 5.29981 4.93765 5.69981 4.93765 6.09981C5.00015 6.64981 5.25015 7.14981 5.75015 7.4998C6.18765 7.84981 6.81265 8.04981 7.43765 8.04981C7.87515 8.04981 8.37515 7.94981 8.75015 7.74981Z" fill="black"/>
<mask id="mask0" mask-type="alpha" maskUnits="userSpaceOnUse" x="0" y="0" width="15" height="12">
<path fill-rule="evenodd" clip-rule="evenodd" d="M14.375 12C14.5625 12 14.6875 11.95 14.8125 11.85C15.0625 11.65 15.0625 11.35 14.8125 11.15L1.0625 0.15C0.8125 -0.05 0.4375 -0.05 0.1875 0.15C-0.0625 0.35 -0.0625 0.65 0.1875 0.85L2.875 3C1.75 3.75 0.75 4.7 0.0625 5.75C-2.79397e-09 5.9 -2.79397e-09 6.05 0.0625 6.2C0.1875 6.4 2.8125 10.5 7.5 10.5C8.8125 10.5 10.0625 10.2 11.125 9.6L13.9375 11.85C14.0625 11.95 14.1875 12 14.375 12ZM6.06257 1.65C5.68757 1.7 5.50007 1.95 5.56257 2.25C5.68757 2.5 6.00007 2.65 6.31257 2.7C6.68757 2.65 7.12507 2.6 7.50007 2.6C10.8751 2.6 13.1251 5.3 13.6876 6.1C13.3751 6.55 13.0001 6.95 12.5626 7.35C12.3126 7.55 12.3751 7.85 12.6251 8.05C12.6876 8.1 12.8751 8.15 13.0001 8.15C13.1876 8.15 13.3751 8.05 13.5001 7.95C14.0626 7.4 14.5626 6.85 14.9376 6.25C15.0001 6.1 15.0001 5.95 14.9376 5.8C14.8126 5.6 12.1876 1.5 7.50007 1.5C7.00007 1.5 6.50007 1.55 6.06257 1.65ZM6.18735 6.0498C6.18735 6.2998 6.31235 6.5498 6.56235 6.7498C6.93735 6.9998 7.37485 7.0498 7.81235 6.9498L6.24985 5.6998C6.24985 5.78238 6.23091 5.8498 6.21388 5.91042C6.19998 5.95991 6.18735 6.00486 6.18735 6.0498ZM8.75015 7.74981L10.2501 8.89981C9.37515 9.29981 8.43765 9.49981 7.50015 9.49981C4.12515 9.49981 1.87515 6.79981 1.31265 5.9998C2.00015 5.0998 2.81265 4.3498 3.75015 3.6998L5.31265 4.9498C5.06265 5.29981 4.93765 5.69981 4.93765 6.09981C5.00015 6.64981 5.25015 7.14981 5.75015 7.4998C6.18765 7.84981 6.81265 8.04981 7.43765 8.04981C7.87515 8.04981 8.37515 7.94981 8.75015 7.74981Z" fill="white"/>
</mask>
<g mask="url(#mask0)">
<rect width="15" height="12" fill="#dddddd"/>
</g>
</svg>
