<svg width="20" height="20" viewBox="0 0 20 20" fill="none" xmlns="http://www.w3.org/2000/svg">
<path fill-rule="evenodd" clip-rule="evenodd" d="M3.4836 1.66667H0.833333C0.373096 1.66667 0 1.29357 0 0.833333C0 0.373096 0.373096 0 0.833333 0H4.16667C4.56386 0 4.90584 0.280321 4.98379 0.669786L5.68369 4.16667H19.1667C19.6895 4.16667 20.0832 4.64253 19.9852 5.15611L18.6507 12.154C18.4148 13.3418 17.3615 14.1897 16.1667 14.1667L8.08263 14.1665C6.87186 14.1897 5.81855 13.3418 5.58287 12.1552L4.19066 5.19934C4.18501 5.17633 4.18032 5.15294 4.17663 5.12923L3.4836 1.66667ZM5.83333 17.5014C5.83333 18.5022 6.49946 19.1694 7.49864 19.1694C8.49782 19.1694 9.16395 18.5022 9.16395 17.5014C9.16395 16.5005 8.49782 15.8333 7.49864 15.8333C6.49946 15.8333 5.83333 16.5005 5.83333 17.5014ZM15 17.5C15 18.5 15.6661 19.1667 16.6653 19.1667C17.6645 19.1667 18.3306 18.5 18.3306 17.5C18.3306 16.5 17.6645 15.8333 16.6653 15.8333C15.6661 15.8333 15 16.5 15 17.5ZM7.21737 11.8293L6.01728 5.83333H18.1594L17.0148 11.8356C16.9373 12.2252 16.5862 12.5079 16.1826 12.5002L8.06667 12.5C7.64711 12.5079 7.29601 12.2252 7.21737 11.8293Z" fill="black"/>
</svg>
