<svg width="20" height="20" viewBox="0 0 20 20" fill="none" xmlns="http://www.w3.org/2000/svg">
<path fill-rule="evenodd" clip-rule="evenodd" d="M19.1663 14.1667C19.1663 14.6667 18.833 15 18.333 15H1.66634C1.16634 15 0.833008 14.6667 0.833008 14.1667C0.833008 13.6667 1.16634 13.3334 1.66634 13.3334C2.58301 13.3334 3.33301 12.5834 3.33301 11.6667V7.50004C3.33301 3.83337 6.33301 0.833374 9.99967 0.833374C13.6663 0.833374 16.6663 3.83337 16.6663 7.50004V11.6667C16.6663 12.5834 17.4163 13.3334 18.333 13.3334C18.833 13.3334 19.1663 13.6667 19.1663 14.1667ZM12.1663 17.9167C11.6663 18.75 10.833 19.1667 9.99968 19.1667C9.58301 19.1667 9.16634 19.0834 8.74968 18.8334C8.33301 18.5834 8.08301 18.3334 7.83301 17.9167C7.58301 17.5 7.74968 17 8.16634 16.75C8.58301 16.5 9.08301 16.6667 9.33301 17.0834C9.35824 17.1086 9.38346 17.1415 9.41101 17.1773L9.41102 17.1774C9.47444 17.26 9.55014 17.3586 9.66634 17.4167C10.083 17.6667 10.583 17.5 10.833 17.0834C11.083 16.6667 11.583 16.5834 11.9997 16.75C12.4163 16.9167 12.4163 17.5 12.1663 17.9167ZM14.9997 11.6667C14.9997 12.25 15.1663 12.8334 15.4163 13.3334H4.58301C4.83301 12.8334 4.99967 12.25 4.99967 11.6667V7.50004C4.99967 4.75004 7.24967 2.50004 9.99967 2.50004C12.7497 2.50004 14.9997 4.75004 14.9997 7.50004V11.6667Z" fill="black"/>
</svg>
