<svg width="20" height="20" viewBox="0 0 20 20" fill="none" xmlns="http://www.w3.org/2000/svg">
<path fill-rule="evenodd" clip-rule="evenodd" d="M14.3337 13.1666L18.0837 16.9166C18.417 17.25 18.417 17.75 18.0837 18.0833C17.917 18.25 17.667 18.3333 17.5003 18.3333C17.3337 18.3333 17.0837 18.25 16.917 18.0833L13.167 14.3333C11.917 15.25 10.417 15.8333 8.75033 15.8333C4.83366 15.8333 1.66699 12.6666 1.66699 8.74996C1.66699 4.83329 4.83366 1.66663 8.75033 1.66663C12.667 1.66663 15.8337 4.83329 15.8337 8.74996C15.8337 10.4166 15.2503 12 14.3337 13.1666ZM8.75033 3.33329C5.75033 3.33329 3.33366 5.74996 3.33366 8.74996C3.33366 11.75 5.75033 14.1666 8.75033 14.1666C10.2503 14.1666 11.5837 13.5833 12.5837 12.5833C13.5837 11.5833 14.167 10.25 14.167 8.74996C14.167 5.74996 11.7503 3.33329 8.75033 3.33329Z" fill="black"/>
</svg>
